<?xml version="1.0" encoding="UTF-8"?>
<svg version="1.1" xmlns="http://www.w3.org/2000/svg" width="500" height="500">
<path d="M0 0 C2.91996306 2.11240413 5.74050273 4.31984134 8.55859375 6.56640625 C9.74387042 7.47686012 10.93144595 8.38432765 12.12109375 9.2890625 C21.17259129 16.18040379 21.17259129 16.18040379 22.55859375 17.56640625 C23.21358122 23.43610162 22.7502883 28.47964306 19.55859375 33.56640625 C17.68359375 34.32421875 17.68359375 34.32421875 15.55859375 35.00390625 C13.41133571 35.82018602 13.41133571 35.82018602 11.55859375 37.56640625 C10.49200324 40.7773139 10.49200324 40.7773139 9.96484375 44.59765625 C9.84661255 45.30333237 9.72838135 46.00900848 9.60656738 46.73606873 C9.23412285 49.00992995 8.89159482 51.28645132 8.55859375 53.56640625 C8.4498291 54.30770782 8.34106445 55.0490094 8.22900391 55.81277466 C7.35525012 61.85626587 6.54031005 67.90786186 5.75634766 73.96362305 C5.4597636 76.24006089 5.15066205 78.51453054 4.83984375 80.7890625 C4.75536987 81.46832291 4.670896 82.14758331 4.5838623 82.84742737 C3.92464766 87.58761197 2.76894644 91.35826006 0.55859375 95.56640625 C-2.30971271 97.02572007 -4.39223004 97.81568158 -7.44140625 98.56640625 C-8.27800781 98.81648438 -9.11460937 99.0665625 -9.9765625 99.32421875 C-14.40131054 100.48546484 -16.54506661 101.00612004 -20.75390625 98.94140625 C-21.64078125 98.15765625 -22.52765625 97.37390625 -23.44140625 96.56640625 C-25.95546936 94.27063382 -25.95546936 94.27063382 -28.44140625 92.56640625 C-30.93499368 92.80788013 -32.10114577 93.21866752 -33.86328125 95.01953125 C-34.3015625 95.6125 -34.73984375 96.20546875 -35.19140625 96.81640625 C-39.11060355 101.62633021 -43.56011427 104.60597559 -49.44140625 106.56640625 C-56.62452401 106.56640625 -61.9284652 102.81596497 -67.44140625 98.56640625 C-68.03888672 99.74203125 -68.03888672 99.74203125 -68.6484375 100.94140625 C-70.70216386 103.94816902 -71.72216693 104.48125804 -75.12890625 105.56640625 C-76.58296875 106.03820312 -76.58296875 106.03820312 -78.06640625 106.51953125 C-79.18015625 106.865 -80.29390625 107.21046875 -81.44140625 107.56640625 C-82.77561847 108.01693683 -84.10891187 108.47019508 -85.44140625 108.92578125 C-86.83680076 109.39064223 -88.23263292 109.85419163 -89.62890625 110.31640625 C-90.28141357 110.53941406 -90.9339209 110.76242187 -91.60620117 110.9921875 C-96.3968742 112.52539572 -100.40636972 113.06838874 -105.44140625 112.56640625 C-108.55859375 110.8515625 -108.55859375 110.8515625 -111.31640625 108.62890625 C-112.24195313 107.89800781 -113.1675 107.16710937 -114.12109375 106.4140625 C-114.88679688 105.80433594 -115.6525 105.19460938 -116.44140625 104.56640625 C-117.10140625 104.23640625 -117.76140625 103.90640625 -118.44140625 103.56640625 C-118.48265625 104.63890625 -118.52390625 105.71140625 -118.56640625 106.81640625 C-119.44140625 110.56640625 -119.44140625 110.56640625 -121.75390625 112.75390625 C-126.57833055 115.42895023 -132.02084367 117.59239891 -137.44140625 118.56640625 C-140.62890625 117.6484375 -140.62890625 117.6484375 -143.44140625 116.56640625 C-146.50941011 116.88598999 -149.31476414 117.53275068 -152.29296875 118.32421875 C-156.33641968 118.63525344 -157.64818226 117.569295 -160.81640625 115.12890625 C-161.69039062 114.47019531 -162.564375 113.81148438 -163.46484375 113.1328125 C-164.11710938 112.61589844 -164.769375 112.09898437 -165.44140625 111.56640625 C-165.73144531 112.17613281 -166.02148438 112.78585937 -166.3203125 113.4140625 C-169.49757143 119.51395681 -174.75548074 121.94688501 -180.72265625 124.74609375 C-183.77430808 125.66685077 -185.42776121 125.51082318 -188.44140625 124.56640625 C-188.77140625 124.23640625 -189.10140625 123.90640625 -189.44140625 123.56640625 C-196.74173599 124.08191928 -203.28959121 126.26156467 -210.1953125 128.5703125 C-218.75067238 131.29188056 -218.75067238 131.29188056 -223.44140625 129.56640625 C-226.1953076 127.75716138 -228.68620943 125.70246798 -231.19140625 123.56640625 C-232.51846016 122.46095251 -233.84653743 121.35672577 -235.17578125 120.25390625 C-235.75553711 119.76277344 -236.33529297 119.27164063 -236.93261719 118.765625 C-238.44584613 117.47817256 -238.44584613 117.47817256 -240.44140625 116.56640625 C-240.58835938 117.92185547 -240.58835938 117.92185547 -240.73828125 119.3046875 C-240.8878125 120.48417969 -241.03734375 121.66367187 -241.19140625 122.87890625 C-241.330625 124.05066406 -241.46984375 125.22242188 -241.61328125 126.4296875 C-242.44140625 129.56640625 -242.44140625 129.56640625 -244.1171875 131.33984375 C-246.97684372 132.84897325 -249.79609356 133.89882129 -252.87890625 134.87890625 C-253.99136719 135.24628906 -255.10382813 135.61367188 -256.25 135.9921875 C-261.11317119 136.86720117 -263.45075389 135.22684116 -267.44140625 132.56640625 C-270.84600928 132.89654957 -272.88297809 134.46562376 -275.50390625 136.56640625 C-280.10342108 140.23895552 -283.50812056 141.06084672 -289.44140625 140.56640625 C-293.34070817 138.7193685 -296.41894487 136.65847838 -299.69140625 133.87890625 C-302.27667315 131.41657075 -302.27667315 131.41657075 -305.44140625 130.56640625 C-305.55097656 131.18128906 -305.66054688 131.79617188 -305.7734375 132.4296875 C-305.93199219 133.23792969 -306.09054687 134.04617188 -306.25390625 134.87890625 C-306.48013672 136.07966797 -306.48013672 136.07966797 -306.7109375 137.3046875 C-307.5511728 139.90627168 -308.27464339 140.9192743 -310.44140625 142.56640625 C-315.31800441 144.60601615 -321.22397554 146.67649789 -326.44140625 145.56640625 C-329.65045109 143.46906623 -332.53971528 141.06582953 -335.44140625 138.56640625 C-339.12143135 135.47503539 -339.12143135 135.47503539 -343.44140625 133.56640625 C-343.52777344 134.23027344 -343.61414063 134.89414062 -343.703125 135.578125 C-344.38385133 139.85608403 -344.98631814 142.91825045 -347.50390625 146.50390625 C-352.93728154 150.31882933 -358.7729259 152.21615562 -365.44140625 151.56640625 C-368.1171875 150.0625 -368.1171875 150.0625 -370.75390625 148.00390625 C-371.70136719 147.27558594 -372.64882813 146.54726563 -373.625 145.796875 C-374.55441406 145.06082031 -375.48382813 144.32476562 -376.44140625 143.56640625 C-377.27800781 142.92316406 -378.11460937 142.27992188 -378.9765625 141.6171875 C-380.49100861 140.4516455 -381.99808543 139.27643815 -383.49609375 138.08984375 C-385.10888851 136.82681171 -386.76977918 135.62547543 -388.44140625 134.44140625 C-390.91297743 132.12430826 -391.04623334 130.88409155 -391.44140625 127.56640625 C-391.13110352 125.40209961 -391.13110352 125.40209961 -390.5078125 123.15625 C-390.27481445 122.2696167 -390.04181641 121.3829834 -389.80175781 120.46948242 C-389.5384668 119.49084229 -389.27517578 118.51220215 -389.00390625 117.50390625 C-385.26064633 102.91580372 -382.72915473 88.12911665 -380.15844727 73.29858398 C-379.99290848 72.35646057 -379.82736969 71.41433716 -379.65681458 70.44366455 C-379.34371133 68.65985505 -379.03596349 66.87509452 -378.73442078 65.08929443 C-378.59357559 64.28856506 -378.45273041 63.48783569 -378.30761719 62.6628418 C-378.1880365 61.96547409 -378.06845581 61.26810638 -377.94525146 60.54960632 C-377.3762345 58.30988178 -376.64848171 56.5389702 -375.44140625 54.56640625 C-372.61328125 53.1171875 -372.61328125 53.1171875 -369.19140625 51.87890625 C-368.0725 51.46253906 -366.95359375 51.04617187 -365.80078125 50.6171875 C-359.54854547 48.66154631 -354.53202378 47.91718242 -348.44140625 50.56640625 C-345.61166943 53.32358572 -344.02376274 55.63549993 -343.44140625 59.56640625 C-342.45140625 59.23640625 -341.46140625 58.90640625 -340.44140625 58.56640625 C-339.60386261 56.58732121 -339.60386261 56.58732121 -338.94140625 54.25390625 C-337.65360432 51.11925658 -336.89302856 49.83539759 -333.94921875 48.08203125 C-329.26154529 46.3289176 -324.45206487 44.63419069 -319.44140625 45.56640625 C-313.86245888 48.72430099 -313.86245888 48.72430099 -312.44140625 51.56640625 C-309.55066938 50.24727087 -307.39700925 48.77896958 -305.06640625 46.62890625 C-299.84251083 42.08156628 -294.47369053 39.34092218 -287.44140625 39.56640625 C-282.70589349 41.2377637 -279.8124455 43.89792236 -276.44140625 47.56640625 C-276.02890625 46.34953125 -275.61640625 45.13265625 -275.19140625 43.87890625 C-272.62608657 38.73000839 -268.77782555 37.35525198 -263.54296875 35.4765625 C-257.78918174 33.78810863 -253.56064528 33.03659649 -247.69140625 34.50390625 C-243.56324921 37.12369821 -241.47292705 40.15697632 -239.44140625 44.56640625 C-239.44140625 45.22640625 -239.44140625 45.88640625 -239.44140625 46.56640625 C-238.78140625 46.23640625 -238.12140625 45.90640625 -237.44140625 45.56640625 C-237.30863281 44.7259375 -237.17585937 43.88546875 -237.0390625 43.01953125 C-236.39553348 39.16775174 -235.6763922 36.79945844 -233.44140625 33.56640625 C-228.37870908 30.84253989 -222.49132623 29.98118432 -216.87963867 29.00732422 C-214.45002825 28.56796541 -212.06835382 28.01769859 -209.66796875 27.44140625 C-206.33291192 26.6877994 -203.43387751 26.45125606 -200.00390625 26.69140625 C-194.48902973 26.81850968 -189.63684924 25.85193764 -184.31640625 24.56640625 C-168.62155366 20.81105607 -168.62155366 20.81105607 -163.26171875 23.76953125 C-160.96232242 26.03932162 -160.68434925 27.5908553 -160.19140625 30.75390625 C-159.96710938 32.10548828 -159.96710938 32.10548828 -159.73828125 33.484375 C-159.6403125 34.17144531 -159.54234375 34.85851562 -159.44140625 35.56640625 C-158.12140625 35.56640625 -156.80140625 35.56640625 -155.44140625 35.56640625 C-155.30863281 34.65117187 -155.17585937 33.7359375 -155.0390625 32.79296875 C-154.86246094 31.60445312 -154.68585938 30.4159375 -154.50390625 29.19140625 C-154.32988281 28.00804687 -154.15585937 26.8246875 -153.9765625 25.60546875 C-153.44140625 22.56640625 -153.44140625 22.56640625 -152.44140625 20.56640625 C-149.64511414 19.79997072 -146.90165493 19.14941806 -144.06640625 18.56640625 C-143.2451123 18.39270508 -142.42381836 18.21900391 -141.57763672 18.04003906 C-139.9393785 17.69619514 -138.30022333 17.35659424 -136.66015625 17.02148438 C-134.84478697 16.64914191 -133.03312355 16.25877168 -131.22265625 15.86328125 C-126.68448093 14.92895104 -122.63406225 14.54139561 -118.00390625 14.75390625 C-111.23851728 14.92237596 -105.10382285 13.17635693 -98.64672852 11.34448242 C-93.38769812 9.88799964 -88.90674128 9.14508292 -83.44140625 9.56640625 C-80.12890625 11.50390625 -80.12890625 11.50390625 -77.44140625 13.56640625 C-76.45140625 13.89640625 -75.46140625 14.22640625 -74.44140625 14.56640625 C-72.55228952 13.46007411 -72.55228952 13.46007411 -70.69140625 11.81640625 C-65.01712188 7.37206695 -59.81197015 4.90470997 -52.5234375 5.140625 C-47.9316376 6.079661 -45.87849551 9.91077236 -43.44140625 13.56640625 C-43.11140625 10.92640625 -42.78140625 8.28640625 -42.44140625 5.56640625 C-36.45441842 3.70434448 -30.42566438 2.57956721 -24.25390625 1.50390625 C-22.30187551 1.16003181 -20.35004398 0.81502416 -18.3984375 0.46875 C-17.5422583 0.31913818 -16.6860791 0.16952637 -15.80395508 0.01538086 C-3.84434879 -2.25740161 -3.84434879 -2.25740161 0 0 Z " fill="#21211E" transform="translate(461.44140625,193.43359375)"/>
<path d="M0 0 C2.82357337 2.59744303 2.81981992 4.81904662 3.1796875 8.59765625 C3.00814951 19.16439664 -3.11912076 28.24633309 -10.1953125 35.66015625 C-11.50228596 36.69437003 -12.8280688 37.70704427 -14.1953125 38.66015625 C-12.20318065 45.27140702 -9.18465841 51.41405745 -6.296875 57.66796875 C-5.89984375 58.53679687 -5.5028125 59.405625 -5.09375 60.30078125 C-4.72942871 61.09000977 -4.36510742 61.87923828 -3.98974609 62.69238281 C-3.1953125 64.66015625 -3.1953125 64.66015625 -3.1953125 66.66015625 C-5.12901481 67.66748024 -7.06741556 68.66578913 -9.0078125 69.66015625 C-10.08675781 70.21703125 -11.16570312 70.77390625 -12.27734375 71.34765625 C-15.1953125 72.66015625 -15.1953125 72.66015625 -18.1953125 72.66015625 C-18.98907112 69.99409676 -19.78036321 67.32734458 -20.5703125 64.66015625 C-20.79203125 63.91636719 -21.01375 63.17257812 -21.2421875 62.40625 C-25.1953125 49.03538603 -25.1953125 49.03538603 -25.1953125 43.66015625 C-26.6803125 44.15515625 -26.6803125 44.15515625 -28.1953125 44.66015625 C-28.51732368 46.47200584 -28.8387057 48.28396911 -29.15722656 50.09643555 C-29.43440763 51.64894441 -29.72033457 53.1999153 -30.01464844 54.74926758 C-30.6765296 58.30006102 -31.19431976 61.62974537 -31.3125 65.25 C-31.4558375 68.5931364 -31.59841765 70.70449999 -33.1953125 73.66015625 C-37.6644261 76.77392899 -43.00286442 78.21991518 -48.1953125 79.66015625 C-47.64469264 72.18644027 -46.63537467 64.93011235 -45.19921875 57.578125 C-45.00561264 56.5614827 -44.81200653 55.54484039 -44.61253357 54.49739075 C-43.99926161 51.27983773 -43.37913345 48.06366384 -42.7578125 44.84765625 C-41.94260421 40.61273729 -41.13178777 36.377007 -40.32421875 32.140625 C-40.13034576 31.13232635 -39.93647278 30.12402771 -39.73672485 29.08517456 C-38.47445436 22.43029756 -37.46396952 15.8076473 -36.76538086 9.06762695 C-36.1953125 6.66015625 -36.1953125 6.66015625 -33.1953125 4.66015625 C-32.2053125 4.66015625 -31.2153125 4.66015625 -30.1953125 4.66015625 C-30.1953125 4.00015625 -30.1953125 3.34015625 -30.1953125 2.66015625 C-5.51048032 -3.36315792 -5.51048032 -3.36315792 0 0 Z " fill="#F7CB00" transform="translate(298.1953125,217.33984375)"/>
<path d="M0 0 C3.75065936 3.29326187 4.63721422 6.10239202 5 11 C5.07476562 11.7940625 5.14953125 12.588125 5.2265625 13.40625 C5.80053082 23.91893296 1.69838948 33.00551789 -4.97265625 41.01953125 C-9.0479484 45.00059699 -13.97532053 48.83570683 -19.8046875 49.15234375 C-20.52914062 49.10207031 -21.25359375 49.05179687 -22 49 C-22.03738281 49.71542969 -22.07476562 50.43085938 -22.11328125 51.16796875 C-22.33025175 54.45656082 -22.65404127 57.72249626 -23 61 C-23.09152344 62.16015625 -23.18304688 63.3203125 -23.27734375 64.515625 C-23.77363899 68.10863847 -24.30311114 70.78531345 -26 74 C-31.29620376 77.46533067 -36.69824775 79 -43 79 C-42.79246094 78.11828125 -42.58492188 77.2365625 -42.37109375 76.328125 C-40.01247415 66.09603306 -37.95571715 55.8121567 -35.96203613 45.50405884 C-35.4997622 43.12377556 -35.03132539 40.74477467 -34.56152344 38.3659668 C-33.25601636 31.72499334 -31.97242489 25.10398407 -31.01171875 18.40234375 C-29.19636578 6.22204805 -29.19636578 6.22204805 -25.81640625 2.76953125 C-23.18851641 1.34159111 -20.91552131 0.62286137 -18 0 C-17.31421875 -0.25394531 -16.6284375 -0.50789062 -15.921875 -0.76953125 C-10.52485464 -2.64532491 -5.30115312 -1.97972267 0 0 Z " fill="#F6CA01" transform="translate(113,244)"/>
<path d="M0 0 C5.08465029 5.08465029 5.30188185 9.04840214 5.31689453 16.04931641 C5.19957273 22.13701437 3.92507358 26.71306576 1 32 C0.56429687 32.79148437 0.12859375 33.58296875 -0.3203125 34.3984375 C-4.31832648 40.97440584 -9.79769202 46.07830903 -17 49 C-19.75 49.125 -19.75 49.125 -22 49 C-22.07347656 49.83917969 -22.07347656 49.83917969 -22.1484375 50.6953125 C-22.30908745 52.41814471 -22.48658875 54.1394432 -22.67578125 55.859375 C-22.90867436 58.11535168 -23.08718261 60.37718977 -23.23046875 62.640625 C-24.06201214 71.99304245 -24.06201214 71.99304245 -26.59375 74.7109375 C-28.73174707 75.83932484 -30.64478222 76.45802095 -33 77 C-33.83402344 77.2165625 -34.66804687 77.433125 -35.52734375 77.65625 C-37.67924832 78.17297906 -39.82403449 78.60159594 -42 79 C-40.19755764 69.01684502 -38.36626034 59.0385642 -36.44824219 49.0769043 C-35.1907972 42.52052775 -33.96901439 35.97058593 -32.96075439 29.37057495 C-32.52273567 26.52767338 -32.05188212 23.69067199 -31.57751465 20.8536377 C-31.36105695 19.50462945 -31.16030941 18.15299622 -30.97619629 16.79919434 C-29.53933377 6.29642912 -29.53933377 6.29642912 -25.72875977 3.0871582 C-23.1690481 1.77129499 -20.75560046 0.81890773 -18 0 C-17.18781006 -0.26441895 -16.37562012 -0.52883789 -15.53881836 -0.80126953 C-10.18203333 -2.42317981 -5.1650854 -2.2254376 0 0 Z " fill="#F7CA01" transform="translate(216,229)"/>
<path d="M0 0 C2.75569447 2.18159145 4.43588747 3.87177494 6 7 C6.13415472 9.6723621 6.04318541 12.32250488 6 15 C-3.37902898 19.30512806 -3.37902898 19.30512806 -8.375 18.9375 C-10.169375 18.9684375 -10.169375 18.9684375 -12 19 C-20.45532885 27.82788165 -26.21576969 43.66073867 -26.25 55.8125 C-26.18781528 57.20943529 -26.11325976 58.60627572 -26 60 C-24.35 60.33 -22.7 60.66 -21 61 C-20.01524786 59.90081184 -19.03739527 58.7954398 -18.0625 57.6875 C-17.24458984 56.76517578 -17.24458984 56.76517578 -16.41015625 55.82421875 C-14.79918441 53.94758042 -14.79918441 53.94758042 -14 51 C-10.7 51.66 -7.4 52.32 -4 53 C-4.99770968 62.56958159 -12.03901804 69.65900491 -19.140625 75.66015625 C-23.5679665 78.85044645 -27.53397916 79.86019053 -33 79 C-37.5909201 76.44948884 -39.57915612 72.93753011 -41 68 C-41.44878873 64.30462375 -41.47589661 60.6567906 -41.4375 56.9375 C-41.42992676 55.91615967 -41.42235352 54.89481934 -41.41455078 53.8425293 C-41.05539017 37.28050629 -34.73066291 21.70021497 -24 9 C-17.43978343 2.86762364 -9.2317618 -1.90167378 0 0 Z " fill="#F8CB00" transform="translate(411,199)"/>
<path d="M0 0 C3.22398994 3.88775257 2.54227501 7.70356433 2.125 12.5625 C0.52467863 13.40319415 -1.08041171 14.23481505 -2.6875 15.0625 C-3.58082031 15.5265625 -4.47414062 15.990625 -5.39453125 16.46875 C-7.875 17.5625 -7.875 17.5625 -10.875 17.5625 C-10.875 16.9025 -10.875 16.2425 -10.875 15.5625 C-16.47417444 17.69210054 -18.57553225 20.61826803 -21 25.875 C-21.33837891 26.58414551 -21.67675781 27.29329102 -22.02539062 28.02392578 C-26.55700762 37.81841781 -29.78096027 47.64064565 -28.875 58.5625 C-27.00950794 59.25974908 -27.00950794 59.25974908 -24.875 59.5625 C-21.37721067 56.66189422 -19.03414778 53.5398775 -16.875 49.5625 C-13.40558454 50.02072468 -10.20104951 50.45381683 -6.875 51.5625 C-10.00314402 61.85364048 -15.66843366 69.88868586 -24.875 75.5625 C-28.9753804 76.92929347 -32.60488379 77.44421341 -36.875 76.5625 C-40.579041 73.92903625 -42.4468717 70.53551886 -44.25 66.4375 C-47.12160749 48.63353358 -42.898654 29.97515889 -32.75390625 15.09765625 C-24.9428995 4.55848082 -14.04577031 -7.02288516 0 0 Z " fill="#F8CB00" transform="translate(179.875,235.4375)"/>
<path d="M0 0 C-0.06000106 1.6260287 -0.1487885 3.25101549 -0.25 4.875 C-0.29640625 5.77992188 -0.3428125 6.68484375 -0.390625 7.6171875 C-1 10 -1 10 -2.65625 11.25 C-7.32849718 12.7451191 -12.15941184 13.26338876 -17 14 C-18.32 20.6 -19.64 27.2 -21 34 C-18.36 33.34 -15.72 32.68 -13 32 C-9.5 31.875 -9.5 31.875 -7 32 C-6.875 39.75 -6.875 39.75 -8 42 C-10.33247815 42.62852934 -12.69291467 43.15535246 -15.0625 43.625 C-16.99802734 44.01558594 -16.99802734 44.01558594 -18.97265625 44.4140625 C-19.97167969 44.60742188 -20.97070312 44.80078125 -22 45 C-22.12117188 45.76183594 -22.24234375 46.52367187 -22.3671875 47.30859375 C-23.38749792 53.59527564 -24.55279729 59.79770268 -26 66 C-25.25234375 65.71125 -24.5046875 65.4225 -23.734375 65.125 C-22.74953125 64.75375 -21.7646875 64.3825 -20.75 64 C-19.77546875 63.62875 -18.8009375 63.2575 -17.796875 62.875 C-15 62 -15 62 -11 62 C-10.875 68.625 -10.875 68.625 -12 72 C-14.43260276 72.96517448 -16.74140719 73.73319748 -19.25 74.4375 C-20.70574423 74.86713648 -22.16147316 75.29682477 -23.6171875 75.7265625 C-24.71691895 76.04415527 -24.71691895 76.04415527 -25.83886719 76.36816406 C-29.03297046 77.30200266 -32.20135043 78.31141591 -35.375 79.3125 C-40.75098814 81 -40.75098814 81 -43 81 C-42.46157167 72.98064175 -41.47271367 65.1766758 -40.00390625 57.27734375 C-39.81030014 56.21060928 -39.61669403 55.14387482 -39.41722107 54.04481506 C-38.80431373 50.67471107 -38.18357414 47.30610743 -37.5625 43.9375 C-37.14986651 41.67652788 -36.73775305 39.41546079 -36.32617188 37.15429688 C-35.39541318 32.04649413 -34.46071026 26.93944804 -33.5173645 21.83395386 C-33.15673128 19.8585228 -32.80422485 17.88159821 -32.45797729 15.90359497 C-32.196353 14.41712967 -32.196353 14.41712967 -31.92944336 12.90063477 C-31.77462997 12.00748062 -31.61981659 11.11432648 -31.46031189 10.19410706 C-31 8 -31 8 -30 6 C-28.23754883 5.32983398 -28.23754883 5.32983398 -25.95703125 4.74609375 C-25.13009766 4.53146484 -24.30316406 4.31683594 -23.45117188 4.09570312 C-22.58041016 3.87849609 -21.70964844 3.66128906 -20.8125 3.4375 C-19.96107422 3.21642578 -19.10964844 2.99535156 -18.23242188 2.76757812 C-12.15278975 1.21122992 -6.31733732 -0.18580404 0 0 Z " fill="#F5CA01" transform="translate(258,221)"/>
<path d="M0 0 C-0.14042877 1.64630328 -0.28749329 3.29204179 -0.4375 4.9375 C-0.51871094 5.85402344 -0.59992188 6.77054688 -0.68359375 7.71484375 C-1 10 -1 10 -2 11 C-4.51994503 11.56225363 -7.02757515 12.07936818 -9.5625 12.5625 C-12.016875 13.036875 -14.47125 13.51125 -17 14 C-18.32 20.6 -19.64 27.2 -21 34 C-19.02 33.34 -17.04 32.68 -15 32 C-12.28938725 31.77336014 -9.72851708 31.9059132 -7 32 C-7.495 36.95 -7.495 36.95 -8 42 C-12.96924032 43.18668425 -16.85290192 44 -22 44 C-22.99 50.93 -23.98 57.86 -25 65 C-22.03 64.01 -19.06 63.02 -16 62 C-12.9375 61.8125 -12.9375 61.8125 -11 62 C-11 64.97 -11 67.94 -11 71 C-21.42609623 75.04277201 -32.00199615 78.8775782 -43 81 C-42.44238786 72.0535749 -41.14804857 63.36612756 -39.53125 54.5546875 C-39.28804752 53.20906762 -39.04525758 51.86337311 -38.80285645 50.51760864 C-38.29867684 47.72528097 -37.79074342 44.93367317 -37.27978516 42.14257812 C-36.6247619 38.56372164 -35.97761436 34.9834954 -35.33298492 31.40275383 C-34.83443882 28.63658413 -34.33272506 25.87099686 -33.8299408 23.10559464 C-33.47356677 21.1437045 -33.11915513 19.18145823 -32.76477051 17.21920776 C-32.54784546 16.03682526 -32.33092041 14.85444275 -32.10742188 13.63623047 C-31.91724487 12.5932077 -31.72706787 11.55018494 -31.53112793 10.47555542 C-31 8 -31 8 -30 6 C-25.75160436 4.40295259 -21.36444648 3.23972636 -17 2 C-15.84951172 1.65195313 -15.84951172 1.65195313 -14.67578125 1.296875 C-9.72643682 -0.10861835 -5.09075397 -0.21211475 0 0 Z " fill="#F6CA01" transform="translate(375,204)"/>
<path d="M0 0 C-0.30769707 1.81332154 -0.62129064 3.62564345 -0.9375 5.4375 C-1.11152344 6.44683594 -1.28554688 7.45617187 -1.46484375 8.49609375 C-2 11 -2 11 -3 12 C-5.68862664 12.39993686 -8.36352217 12.75134543 -11.0625 13.0625 C-11.82111328 13.15337891 -12.57972656 13.24425781 -13.36132812 13.33789062 C-15.2404301 13.5624374 -17.12016095 13.78170978 -19 14 C-19.13277344 15.02480469 -19.26554687 16.04960937 -19.40234375 17.10546875 C-19.58064088 18.4661574 -19.75903123 19.82683385 -19.9375 21.1875 C-20.02451172 21.86103516 -20.11152344 22.53457031 -20.20117188 23.22851562 C-20.67978111 26.86240055 -21.28011759 30.40058796 -22 34 C-17.38 33.67 -12.76 33.34 -8 33 C-7.875 40.75 -7.875 40.75 -9 43 C-11.54941373 43.31241371 -14.00361513 43.51303421 -16.5625 43.625 C-17.62887695 43.68300781 -17.62887695 43.68300781 -18.71679688 43.7421875 C-20.47742425 43.83671783 -22.23867728 43.91945817 -24 44 C-24.05406006 44.58700684 -24.10812012 45.17401367 -24.16381836 45.77880859 C-24.79880265 52.41982136 -25.64073359 59.01827232 -26.5625 65.625 C-26.70107422 66.62917969 -26.83964844 67.63335937 -26.98242188 68.66796875 C-27.3199604 71.11221324 -27.65917777 73.55621161 -28 76 C-30.62353518 77.00399524 -33.24867795 78.00334445 -35.875 79 C-36.62136719 79.28617187 -37.36773437 79.57234375 -38.13671875 79.8671875 C-43.7734375 82 -43.7734375 82 -46 82 C-44.92161049 75.17795997 -43.71006803 68.38982672 -42.37890625 61.61328125 C-39.01398493 44.42600314 -35.93084581 27.3897275 -34.27783203 9.93481445 C-34 8 -34 8 -33 6 C-30.20378511 5.23358564 -27.46007956 4.58344295 -24.625 4 C-23.80950684 3.82629883 -22.99401367 3.65259766 -22.15380859 3.47363281 C-5.69478483 0 -5.69478483 0 0 0 Z " fill="#F6CA01" transform="translate(342,208)"/>
<path d="M0 0 C-0.66 4.29 -1.32 8.58 -2 13 C-5.3 13.66 -8.6 14.32 -12 15 C-12.13664062 16.29744141 -12.27328125 17.59488281 -12.4140625 18.93164062 C-12.94186183 23.67488983 -13.63053097 28.38032439 -14.375 33.09375 C-14.50438965 33.92531616 -14.6337793 34.75688232 -14.76708984 35.61364746 C-15.31384545 39.12716233 -15.86512946 42.63996283 -16.41601562 46.15283203 C-16.82059519 48.73706006 -17.2228417 51.32164424 -17.625 53.90625 C-17.74794434 54.68464233 -17.87088867 55.46303467 -17.99755859 56.26501465 C-18.11437988 57.01609497 -18.23120117 57.76717529 -18.3515625 58.54101562 C-18.46532227 59.27167236 -18.57908203 60.0023291 -18.69628906 60.75512695 C-19.11430407 63.84487616 -19.33915146 66.94678999 -19.53662109 70.0579834 C-20.1244628 72.52162241 -21.04282862 73.42828346 -23 75 C-25.8125 76.16796875 -25.8125 76.16796875 -29 77.1875 C-30.051875 77.53167969 -31.10375 77.87585938 -32.1875 78.23046875 C-35 79 -35 79 -38 79 C-36.72275594 69.50510385 -35.18610231 60.08852737 -33.45043945 50.66870117 C-33.06352948 48.56808923 -32.68085324 46.46673961 -32.29882812 44.36523438 C-30.62998785 35.22318747 -28.85104149 26.10692642 -27 17 C-31.95 17.495 -31.95 17.495 -37 18 C-37 14.04 -37 10.08 -37 6 C-31.09036328 4.18038925 -25.14228016 2.98340016 -19.0625 1.875 C-18.11181641 1.69324219 -17.16113281 1.51148438 -16.18164062 1.32421875 C-10.68941528 0.31737386 -5.58255037 -0.19772906 0 0 Z " fill="#F5C901" transform="translate(456,193)"/>
<path d="M0 0 C-0.81361264 4.98117692 -1.63163871 9.96160233 -2.45361328 14.94140625 C-2.73214666 16.632617 -3.00951115 18.32402073 -3.28564453 20.015625 C-3.68468721 22.45886104 -4.08804602 24.90135282 -4.4921875 27.34375 C-4.6131076 28.08991577 -4.73402771 28.83608154 -4.85861206 29.6048584 C-5.44911281 33.14934994 -6.12780494 36.62342781 -7.03125 40.10229492 C-7.9674589 43.71875555 -8.53191396 47.31099219 -9.0078125 51.01953125 C-9.19085938 52.28861328 -9.37390625 53.55769531 -9.5625 54.86523438 C-9.84523314 56.8492749 -10.12757785 58.83364401 -10.37011719 60.82299805 C-11.73688641 71.86114512 -11.73688641 71.86114512 -14.68261719 74.51708984 C-16.877129 75.40401601 -18.64046735 75.75228937 -21 76 C-22.42354239 76.17914322 -23.84686894 76.36000674 -25.27001953 76.54223633 C-27.11635986 76.76882935 -27.11635986 76.76882935 -29 77 C-24.1953125 52.9765625 -24.1953125 52.9765625 -23.66853333 50.34352112 C-23.31530213 48.57679341 -22.96251193 46.80997748 -22.6101532 45.04307556 C-21.70719789 40.5181706 -20.79624733 35.99512644 -19.87036133 31.47485352 C-19.68822083 30.57994202 -19.50608032 29.68503052 -19.31842041 28.76300049 C-18.97427881 27.07317346 -18.62750608 25.38387913 -18.27752686 23.69525146 C-17.31331089 18.94390699 -16.6449439 14.26422623 -16.1875 9.4375 C-15.74609375 6.38671875 -15.74609375 6.38671875 -15 4 C-11.75 1.75 -11.75 1.75 -8 1 C-6.906875 0.773125 -5.81375 0.54625 -4.6875 0.3125 C-2 0 -2 0 0 0 Z " fill="#F7CB00" transform="translate(139,240)"/>
<path d="M0 0 C0.87785156 -0.00257813 1.75570313 -0.00515625 2.66015625 -0.0078125 C4.9375 0.125 4.9375 0.125 6.9375 1.125 C7.02438345 5.20852229 6.64085214 7.23103352 4.078125 10.48828125 C0.07463974 14.59252537 -3.6372201 18.1401415 -9.0625 20.125 C-9.7225 20.125 -10.3825 20.125 -11.0625 20.125 C-10.33887073 13.73294144 -9.25906638 7.44472924 -8.0625 1.125 C-5.09900719 0.13716906 -3.0912337 -0.00910525 0 0 Z " fill="#2A281D" transform="translate(283.0625,229.875)"/>
<path d="M0 0 C4.75 0.75 4.75 0.75 7 3 C7.6938502 10.28542709 6.473557 16.51335753 3 23 C0.80844116 25.44027965 -1.30471169 27.0821987 -4 29 C-5.11567116 25.65298653 -4.87119826 24.20385943 -4.2578125 20.78125 C-4.07863281 19.76675781 -3.89945312 18.75226563 -3.71484375 17.70703125 C-3.52019531 16.64871094 -3.32554688 15.59039062 -3.125 14.5 C-2.93808594 13.44167969 -2.75117187 12.38335937 -2.55859375 11.29296875 C-1.15743046 3.47229138 -1.15743046 3.47229138 0 0 Z " fill="#28261D" transform="translate(98,255)"/>
<path d="M0 0 C2.9375 0.375 2.9375 0.375 6 1 C7.99916635 4.99833271 7.50461748 9.65468284 7 14 C5.15366761 19.31005196 2.56209241 24.53910231 -2 28 C-2.66 28 -3.32 28 -4 28 C-4.2408831 21.55637696 -3.35299608 15.7896034 -2 9.5 C-1.80921875 8.5821875 -1.6184375 7.664375 -1.421875 6.71875 C-0.95496547 4.47758423 -0.48089308 2.23819917 0 0 Z " fill="#28261D" transform="translate(201,240)"/>
<path d="M0 0 C1.28598135 4.31829768 0.65396316 8.12697613 -0.0625 12.5 C-0.15982422 13.25925781 -0.25714844 14.01851562 -0.35742188 14.80078125 C-1.25352528 20.27324159 -1.25352528 20.27324159 -3.46044922 22.421875 C-5.12109375 23.53125 -5.12109375 23.53125 -8 25 C-7.79503906 24.42894531 -7.59007812 23.85789062 -7.37890625 23.26953125 C-5.03126261 16.20413485 -4.33709974 9.41619434 -4 2 C-3.67 2.66 -3.34 3.32 -3 4 C-2.34 3.67 -1.68 3.34 -1 3 C-0.67 2.01 -0.34 1.02 0 0 Z " fill="#2B291C" transform="translate(225,236)"/>
<path d="M0 0 C1.49734277 3.95581771 0.57597376 7.56000097 -0.25 11.5625 C-0.37246094 12.23474609 -0.49492188 12.90699219 -0.62109375 13.59960938 C-1.36664615 17.3162988 -2.02766657 19.60221556 -5 22 C-5.66 22.99 -6.32 23.98 -7 25 C-6.75443359 23.75863281 -6.75443359 23.75863281 -6.50390625 22.4921875 C-5.9535453 18.67805811 -5.88910945 14.96646499 -5.9375 11.125 C-5.94201172 10.43664062 -5.94652344 9.74828125 -5.95117188 9.0390625 C-5.96283664 7.35933665 -5.98076729 5.67965625 -6 4 C-5.67 4.66 -5.34 5.32 -5 6 C-4.01 5.67 -3.02 5.34 -2 5 C-0.78130071 2.49552484 -0.78130071 2.49552484 0 0 Z " fill="#35301B" transform="translate(123,247)"/>
<path d="M0 0 C0.33 0 0.66 0 1 0 C1.19294408 4.82360189 0.75747614 8.49646738 -1 13 C-1.99 13 -2.98 13 -4 13 C-3.50269348 8.02693484 -2.44697666 4.36200187 0 0 Z " fill="#120F0C" transform="translate(421,246)"/>
<path d="M0 0 C1.08892712 2.83121051 0.96109941 4.16532751 0.25 7.1875 C-0.1625 8.115625 -0.575 9.04375 -1 10 C-1.99 10.33 -2.98 10.66 -4 11 C-4.33 8.36 -4.66 5.72 -5 3 C-4.01 3.33 -3.02 3.66 -2 4 C-1.34 2.68 -0.68 1.36 0 0 Z " fill="#2E2B1B" transform="translate(187,237)"/>
<path d="M0 0 C2.97 0.495 2.97 0.495 6 1 C5.01 1.33 4.02 1.66 3 2 C2.67 4.31 2.34 6.62 2 9 C1.01 8.34 0.02 7.68 -1 7 C-0.67 4.69 -0.34 2.38 0 0 Z " fill="#332F1B" transform="translate(342,208)"/>
</svg>
